<svg width="152" height="152" viewBox="0 0 152 152" fill="none" xmlns="http://www.w3.org/2000/svg">
<path d="M135.5 46L116.5 64V56H108V36H116.5V28L135.5 46Z" fill="#111820"/>
<path d="M53.4 80.2C49.7813 72.6178 47.7094 64.391 47.3047 56H80V36H25C25 59.8 30 77.5 34.8 87.3C42.3 102.5 53.6 116 74.7 124.6H75.3C88.0098 119.815 99.0808 111.486 107.2 100.6C114.472 90.4851 119.578 78.9785 122.2 66.8H63C64 75.2 68 82.4 73.2 86.8H93.1C89.2 93.2 82.2 99.2 75 102.7C68 99.7 59.5 92.1 53.4 80.2Z" fill="#111820"/>
<path d="M104 56H84V36H104V56Z" fill="#111820"/>
</svg>
